<svg id="Camada_6" data-name="Camada 6" xmlns="http://www.w3.org/2000/svg" viewBox="0 0 180 180"><defs><style>.cls-1{fill:#005796;}.cls-2{fill:#fff;}</style></defs><title>SOCIAL</title><rect class="cls-1" x="-0.5" y="-0.5" width="181" height="181"/><path class="cls-2" d="M68.39,54.22c2-.42,3.06-.61,5.12-.93a29.28,29.28,0,0,1,3.21-.35A7.36,7.36,0,0,1,78.4,53a1.37,1.37,0,0,1,.77.36,1.19,1.19,0,0,1,.2.77v.5a1,1,0,0,1-.39.84,4.31,4.31,0,0,1-1.43.54c-.69.17-1.6.33-2.71.49l-1.37.2V59c-2,.32-3.06.5-5.08.92Zm5.08.06v1.46l.38-.05a3.57,3.57,0,0,0,1-.25.48.48,0,0,0,.27-.46V54.5a.32.32,0,0,0-.32-.34A5.66,5.66,0,0,0,73.47,54.27Z"/><path class="cls-2" d="M92.59,55.42a3.68,3.68,0,0,1-.14,1.22c-.09.24-.39.45-.88.64a8.93,8.93,0,0,1-2,.44c-.84.11-1.82.17-2.93.2s-2,0-2.85,0a8.82,8.82,0,0,1-2-.32c-.51-.16-.82-.35-.91-.58a3.51,3.51,0,0,1-.15-1.22v-1a3.85,3.85,0,0,1,.14-1.23,1.64,1.64,0,0,1,.88-.73,8.13,8.13,0,0,1,2-.59A19.51,19.51,0,0,1,86.64,52a19.76,19.76,0,0,1,2.85.11,7.94,7.94,0,0,1,2,.47,1.59,1.59,0,0,1,.92.67,3.63,3.63,0,0,1,.15,1.24Zm-5.14-1.89q0-.4-.15-.51a1.16,1.16,0,0,0-.63-.09A1.65,1.65,0,0,0,86,53c-.14.07-.21.25-.21.54v2.67c0,.33,0,.54.14.61a1.16,1.16,0,0,0,.65.1,1.12,1.12,0,0,0,.67-.15.94.94,0,0,0,.15-.64Z"/><path class="cls-2" d="M104.83,53.12v1.15c-1.21-.18-1.82-.25-3-.39v4.58c-2-.24-3.07-.33-5.13-.46V53.4c-1.21-.08-1.82-.11-3-.16V52.1A87.73,87.73,0,0,1,104.83,53.12Z"/><path class="cls-2" d="M111.07,54.22v5.72c-2-.42-3-.6-5.08-.92V53.29C108,53.61,109,53.8,111.07,54.22Z"/><path class="cls-2" d="M122.31,43.44l-1.25.11c-1.52.14-3.11.2-4.86.2A42.32,42.32,0,0,1,103.26,42l-1.6-.46a38.77,38.77,0,0,0-23.32,0l-1.6.46A42.32,42.32,0,0,1,63.8,43.75c-1.75,0-3.35-.07-4.86-.2l-1.25-.11-.56,1.11A72.11,72.11,0,0,0,49.45,77a71.06,71.06,0,0,0,11.16,38.58A62.88,62.88,0,0,0,89.29,140l.71.29h0l.71-.29a62.88,62.88,0,0,0,28.68-24.36A71.06,71.06,0,0,0,130.55,77a72.11,72.11,0,0,0-7.67-32.49Zm-4.88,70.92A60.59,60.59,0,0,1,90,137.75a60.59,60.59,0,0,1-27.43-23.39A68.74,68.74,0,0,1,51.78,77,69.81,69.81,0,0,1,59.06,45.9c1.5.12,3.05.18,4.74.18a44.83,44.83,0,0,0,13.55-1.85L79,43.76a36.45,36.45,0,0,1,22,0l1.65.47a44.83,44.83,0,0,0,13.55,1.85c1.69,0,3.24-.06,4.74-.18A69.81,69.81,0,0,1,128.22,77,68.74,68.74,0,0,1,117.43,114.36Z"/><path class="cls-2" d="M98.82,127.11C90.37,126.73,74.55,124,66,109.42c7.22,13.27,20.59,18.9,27.59,21a39.86,39.86,0,0,0,4.56,1.14c.66-.41,1.28-.8,1.87-1.19q2.23-1.57,4.33-3.36A43.34,43.34,0,0,1,98.82,127.11Z"/><path class="cls-2" d="M120,47.39l-1.13,0c-.91,0-1.84.06-2.84.06a45.74,45.74,0,0,1-13.81-1.88l-1.67-.48a35,35,0,0,0-21.15,0l-1.67.48A45.74,45.74,0,0,1,64,47.51c-1,0-1.93,0-2.85-.06L60,47.39l-.48,1A68.55,68.55,0,0,0,53.26,77a67.08,67.08,0,0,0,10.53,36.43,59.22,59.22,0,0,0,25.52,22.26L90,136s3.18-1.44,4.39-2.1A22.37,22.37,0,0,1,90,132.31c-.54-.25-1.09-.52-1.6-.78l-.36-.18-.93-.49c-.87-.47-1.72-1-2.56-1.48-.67-.41-1.06-.67-1.06-.67a57.13,57.13,0,0,1-16.86-17.08A63.72,63.72,0,0,1,56.65,77,65.2,65.2,0,0,1,62.1,50.87l1.85,0a48.74,48.74,0,0,0,14.69-2l1.74-.5a31.61,31.61,0,0,1,19.23,0l1.74.5a48.77,48.77,0,0,0,14.7,2l1.84,0A65.24,65.24,0,0,1,123.35,77a63.73,63.73,0,0,1-10,34.59,59.51,59.51,0,0,1-6.87,8.75c-2,.39-7.16,1-7.16,1a55.49,55.49,0,0,1-8.92.11l-1.4-.12q-1.19-.12-2.31-.3l-1.62-.28q-1-.2-1.94-.43l-1.53-.42c-10.4-3.06-14.31-9.24-14.31-9.24s8.85,14.45,34.48,14.1q2.57,0,5.36-.28a61.46,61.46,0,0,0,5-5.44,64.24,64.24,0,0,0,4.08-5.63A67.1,67.1,0,0,0,126.74,77a68.53,68.53,0,0,0-6.23-28.61Z"/><path class="cls-2" d="M100.07,63.12a26.5,26.5,0,0,0-5.8-1.62A42,42,0,0,1,100.07,63.12Z"/><path class="cls-2" d="M66.69,85.62s-.71-.67-.81.11c0,0,.05,5.72,5.43,7.82,0,0-3.13-3.76-3.28-6,0,0,2.27,4.29,5.05,6,0,0,1.19.2,3.49-1.47,0,0-2,2.75-7.38,2.32a.39.39,0,0,0-.54.37c0,.54,2.34,4.63,6.13,4.43,0,0-3.42-2.22-4-4.08a14.89,14.89,0,0,0,5.79,3.6A7.87,7.87,0,0,0,79,95.91s-.1,3.4-5.95,4.53c0,0-.61,0-.4.5,0,0,1,2.16,5.59,2.16,0,0-2.49-1.16-3-2.39,0,0,2.63,2,4.85,1.85a4.2,4.2,0,0,0,1.43-1.82A3.69,3.69,0,0,1,77.83,104s3.5,3.94,10.91,6.57c0,0,6,9.84,8.86,7.48l-6.4-6.2L98.82,118s2.43.44,2.83-.94l-9.77-5.69,9,4.55s5.23.5,4.28-1.11L89.64,110A87.16,87.16,0,0,0,85.31,99a21.06,21.06,0,0,1-1.8-11.72l4.75,6.87s1.41,2.27.81,8c0,0,1.41-5.51-.05-8.74a58.55,58.55,0,0,0-4.75-7.78L89.32,90a17.9,17.9,0,0,1,2.43,8.13s-.2-6.87-1.47-8.29-4.09-4.8-4.09-4.8l4.24,2.37s2.83,2.07,3.28,7.73c0,0,.25-6.32-2.63-8.49s-3.49-2.58-3.49-2.58l4.75,2s3.18,1.77,3.08,6.67c0,0,.61-5.31-2.43-7.53l-3.69-2s1.34-.14,2.25-.34,11.86,7.77,19.2,5.59a4.26,4.26,0,0,0,2.8-4.49,15.47,15.47,0,0,0-1.11-4.89,18.28,18.28,0,0,0-.15-2c-.56-4.4-2.38-10.35-12.23-13.94,4.9,2,11.21,6.14,11.76,14.73a11.52,11.52,0,0,0-3-3.43c-3.5-2.69-8.66-4-13.34-10.48a25.12,25.12,0,0,0,7.88,7.51c4.57,2.72,7,4.22,8.51,7.67,0,.41,0,.83,0,1.25,0,.07.1,5.49-6.32,5.36a26.33,26.33,0,0,1-11.25-3.4,28.17,28.17,0,0,1,3.47-.2s6.46,1.86,7.82,2.46l-4.78-2.46a63.45,63.45,0,0,1,7.75,1.35,62.07,62.07,0,0,0-5.63-3.77s4,1.1,4.3,1.24c-.28-.14-4.53-2.19-5.37-2.38a28.43,28.43,0,0,0-9.06-5.89C85.86,69.87,76.46,69,75,78c0,0-.76-2.65,2.55-6.64,0,0,.34-.56-.33-.65,0,0-5.41-.69-6.8,4,0,0,3-2.76,5.51-3.45a25.37,25.37,0,0,0-5.57,5s.19,5.42,6.32,8.42c0,0-6-1.08-7.61-8.25,0,0-.2-.78-.75-.06,0,0-3.6,4.4-.24,8.79,0,0-.28-6.06.76-6.9,0,0-.3,5.36.86,8.26,0,0,2.4,1.95,7.17.28C76.91,86.81,72.23,89.72,66.69,85.62Zm44.61-1.78a5.46,5.46,0,0,0,1.11-3.26c1.37,4.5.27,8.07-5,7.44-4.89-.58-6.94-1.8-12.08-4.22C98.63,85.28,108,88.84,111.3,83.84ZM80.1,104.5s3.41,2.3,7.58,4.72C87.67,109.22,82.72,108.11,80.1,104.5Zm5.55-2.73c1.5,3.15,2.9,6.67,2.9,6.67-.14-.21-2.46-4.37-4.13-7a19.2,19.2,0,0,0-2.34-3.16c-.44-4-2.53-5.42-2.53-5.42a9.33,9.33,0,0,0-.67-4.18c.54-.54.94-3.13.94-3.13a10.75,10.75,0,0,0,1.55,0c-.81,5.93.81,8.69,1.48,10.71C83.15,97.17,84.46,99.29,85.64,101.77ZM98.9,79.68a.71.71,0,1,1-.83.83A.7.7,0,0,1,98.9,79.68ZM98,77.38a21.81,21.81,0,0,0-5.17-2.69,65,65,0,0,0-6.5-2.16C94.89,73.64,98,77.38,98,77.38Zm-21-.51a8.21,8.21,0,0,1,5.95-4.82,7.55,7.55,0,0,0-5.12,5.31c-1.31,4.45,3.44,5.25,6.62,4.5A32.12,32.12,0,0,1,90,80.65c3.89-.56,6,.71,6,.71-3.19-1.21-9.47,1.39-12.63,1.77C75.94,84,76.12,78.92,76.91,76.87Z"/><path class="cls-2" d="M158.39,144.22c2-.42,3.06-.61,5.12-.93a29.28,29.28,0,0,1,3.21-.35,7.36,7.36,0,0,1,1.69.08,1.37,1.37,0,0,1,.77.36,1.19,1.19,0,0,1,.2.77v.5a1,1,0,0,1-.39.84,4.31,4.31,0,0,1-1.43.54c-.69.17-1.6.33-2.71.49l-1.37.2V149c-2,.32-3.06.5-5.08.92Zm5.08.06v1.46l.38-.05a3.57,3.57,0,0,0,1-.25.48.48,0,0,0,.27-.46v-.47a.32.32,0,0,0-.32-.34A5.66,5.66,0,0,0,163.47,144.27Z"/><path class="cls-2" d="M182.59,145.42a3.68,3.68,0,0,1-.14,1.22c-.09.24-.39.45-.88.64a8.93,8.93,0,0,1-2,.44c-.84.11-1.82.17-2.93.2s-2,0-2.85,0a8.82,8.82,0,0,1-2-.32c-.51-.16-.82-.35-.91-.58a3.51,3.51,0,0,1-.15-1.22v-1a3.85,3.85,0,0,1,.14-1.23,1.64,1.64,0,0,1,.88-.73,8.13,8.13,0,0,1,2-.59,19.51,19.51,0,0,1,2.93-.29,19.76,19.76,0,0,1,2.85.11,7.94,7.94,0,0,1,2,.47,1.59,1.59,0,0,1,.92.67,3.63,3.63,0,0,1,.15,1.24Zm-5.14-1.89q0-.4-.15-.51a1.16,1.16,0,0,0-.63-.09,1.65,1.65,0,0,0-.62.11c-.14.07-.21.25-.21.54v2.67c0,.33,0,.54.14.61a1.16,1.16,0,0,0,.65.1,1.12,1.12,0,0,0,.67-.15.94.94,0,0,0,.15-.64Z"/><path class="cls-2" d="M212.31,133.44l-1.25.11c-1.52.14-3.11.2-4.86.2A42.32,42.32,0,0,1,193.26,132l-1.6-.46a38.77,38.77,0,0,0-23.32,0l-1.6.46a42.32,42.32,0,0,1-12.94,1.77c-1.75,0-3.35-.07-4.86-.2l-1.25-.11-.56,1.11A72.11,72.11,0,0,0,139.45,167a71.06,71.06,0,0,0,11.16,38.58A62.88,62.88,0,0,0,179.29,230l.71.29h0l.71-.29a62.88,62.88,0,0,0,28.68-24.36A71.06,71.06,0,0,0,220.55,167a72.11,72.11,0,0,0-7.67-32.49Zm-4.88,70.92A60.59,60.59,0,0,1,180,227.75a60.59,60.59,0,0,1-27.43-23.39A68.74,68.74,0,0,1,141.78,167a69.81,69.81,0,0,1,7.28-31.15c1.5.12,3.05.18,4.74.18a44.83,44.83,0,0,0,13.55-1.85l1.65-.47a36.45,36.45,0,0,1,22,0l1.65.47a44.83,44.83,0,0,0,13.55,1.85c1.69,0,3.24-.06,4.74-.18A69.81,69.81,0,0,1,218.22,167,68.74,68.74,0,0,1,207.43,204.36Z"/><path class="cls-2" d="M210,137.39l-1.13,0c-.91,0-1.84.06-2.84.06a45.74,45.74,0,0,1-13.81-1.88l-1.67-.48a35,35,0,0,0-21.15,0l-1.67.48a45.74,45.74,0,0,1-13.8,1.88c-1,0-1.93,0-2.85-.06l-1.14-.05-.48,1A68.55,68.55,0,0,0,143.26,167a67.08,67.08,0,0,0,10.53,36.43,59.22,59.22,0,0,0,25.52,22.26l.69.27s3.18-1.44,4.39-2.1a22.37,22.37,0,0,1-4.39-1.58c-.54-.25-1.09-.52-1.6-.78l-.36-.18-.93-.49c-.87-.47-1.72-1-2.56-1.48-.67-.41-1.06-.67-1.06-.67a57.13,57.13,0,0,1-16.86-17.08,63.72,63.72,0,0,1-10-34.59,65.2,65.2,0,0,1,5.46-26.16l1.85,0a48.74,48.74,0,0,0,14.69-2l1.74-.5a31.61,31.61,0,0,1,19.23,0l1.74.5a48.77,48.77,0,0,0,14.7,2l1.84,0A65.24,65.24,0,0,1,213.35,167a63.73,63.73,0,0,1-10,34.59,59.51,59.51,0,0,1-6.87,8.75c-2,.39-7.16,1-7.16,1a55.49,55.49,0,0,1-8.92.11l-1.4-.12q-1.19-.12-2.31-.3l-1.62-.28q-1-.2-1.94-.43l-1.53-.42c-10.4-3.06-14.31-9.24-14.31-9.24s8.85,14.45,34.48,14.1q2.57,0,5.36-.28a61.46,61.46,0,0,0,5-5.44,64.24,64.24,0,0,0,4.08-5.63A67.1,67.1,0,0,0,216.74,167a68.53,68.53,0,0,0-6.23-28.61Z"/><path class="cls-2" d="M156.69,175.62s-.71-.67-.81.11c0,0,.05,5.72,5.43,7.82,0,0-3.13-3.76-3.28-6,0,0,2.27,4.29,5.05,6,0,0,1.19.2,3.49-1.47,0,0-2,2.75-7.38,2.32a.39.39,0,0,0-.54.37c0,.54,2.34,4.63,6.13,4.43,0,0-3.42-2.22-4-4.08a14.89,14.89,0,0,0,5.79,3.6,7.87,7.87,0,0,0,2.44-2.83s-.1,3.4-5.95,4.53c0,0-.61,0-.4.5,0,0,1,2.16,5.59,2.16,0,0-2.49-1.16-3-2.39,0,0,2.63,2,4.85,1.85a4.2,4.2,0,0,0,1.43-1.82,3.69,3.69,0,0,1-3.69,3.28s3.5,3.94,10.91,6.57c0,0,6,9.84,8.86,7.48l-6.4-6.2,7.61,6.16s2.43.44,2.83-.94l-9.77-5.69,9,4.55s5.23.5,4.28-1.11L179.64,200A87.16,87.16,0,0,0,175.31,189a21.06,21.06,0,0,1-1.8-11.72l4.75,6.87s1.41,2.27.81,8c0,0,1.41-5.51-.05-8.74a58.55,58.55,0,0,0-4.75-7.78l5.05,4.35a17.9,17.9,0,0,1,2.43,8.13s-.2-6.87-1.47-8.29-4.09-4.8-4.09-4.8l4.24,2.37s2.83,2.07,3.28,7.73c0,0,.25-6.32-2.63-8.49s-3.49-2.58-3.49-2.58l4.75,2s3.18,1.77,3.08,6.67c0,0,.61-5.31-2.43-7.53l-3.69-2s1.34-.14,2.25-.34,11.86,7.77,19.2,5.59a4.26,4.26,0,0,0,2.8-4.49,15.47,15.47,0,0,0-1.11-4.89,18.28,18.28,0,0,0-.15-2c-.56-4.4-2.38-10.35-12.23-13.94,4.9,2,11.21,6.14,11.76,14.73a11.52,11.52,0,0,0-3-3.43c-3.5-2.69-8.66-4-13.34-10.48a25.12,25.12,0,0,0,7.88,7.51c4.57,2.72,7,4.22,8.51,7.67,0,.41,0,.83,0,1.25,0,.07.1,5.49-6.32,5.36a26.33,26.33,0,0,1-11.25-3.4,28.17,28.17,0,0,1,3.47-.2s6.46,1.86,7.82,2.46l-4.78-2.46a63.45,63.45,0,0,1,7.75,1.35,62.07,62.07,0,0,0-5.63-3.77s4,1.1,4.3,1.24c-.28-.14-4.53-2.19-5.37-2.38a28.43,28.43,0,0,0-9.06-5.89C175.86,159.87,166.46,159,165,168c0,0-.76-2.65,2.55-6.64,0,0,.34-.56-.33-.65,0,0-5.41-.69-6.8,4,0,0,3-2.76,5.51-3.45a25.37,25.37,0,0,0-5.57,5s.19,5.42,6.32,8.42c0,0-6-1.08-7.61-8.25,0,0-.2-.78-.75-.06,0,0-3.6,4.4-.24,8.79,0,0-.28-6.06.76-6.9,0,0-.3,5.36.86,8.26,0,0,2.4,1.95,7.17.28C166.91,176.81,162.23,179.72,156.69,175.62Zm44.61-1.78a5.46,5.46,0,0,0,1.11-3.26c1.37,4.5.27,8.07-5,7.44-4.89-.58-6.94-1.8-12.08-4.22C188.63,175.28,198,178.84,201.3,173.84ZM170.1,194.5s3.41,2.3,7.58,4.72C177.67,199.22,172.72,198.11,170.1,194.5Zm5.55-2.73c1.5,3.15,2.9,6.67,2.9,6.67-.14-.21-2.46-4.37-4.13-7a19.2,19.2,0,0,0-2.34-3.16c-.44-4-2.53-5.42-2.53-5.42a9.33,9.33,0,0,0-.67-4.18c.54-.54.94-3.13.94-3.13a10.75,10.75,0,0,0,1.55,0c-.81,5.93.81,8.69,1.48,10.71C173.15,187.17,174.46,189.29,175.64,191.77Zm13.26-22.09a.71.71,0,1,1-.83.83A.7.7,0,0,1,188.9,169.68Zm-.95-2.3a21.81,21.81,0,0,0-5.17-2.69,65,65,0,0,0-6.5-2.16C184.89,163.64,188,167.38,188,167.38Zm-21-.51a8.21,8.21,0,0,1,5.95-4.82,7.55,7.55,0,0,0-5.12,5.31c-1.31,4.45,3.44,5.25,6.62,4.5a32.12,32.12,0,0,1,5.66-1.21c3.89-.56,6,.71,6,.71-3.19-1.21-9.47,1.39-12.63,1.77C165.94,174,166.12,168.92,166.91,166.87Z"/><path class="cls-2" d="M212.31-46.56l-1.25.11c-1.52.14-3.11.2-4.86.2A42.32,42.32,0,0,1,193.26-48l-1.6-.46A36.39,36.39,0,0,0,180-50.27a36.39,36.39,0,0,0-11.66,1.79l-1.6.46a42.32,42.32,0,0,1-12.94,1.77c-1.75,0-3.35-.07-4.86-.2l-1.25-.11-.56,1.11A72.11,72.11,0,0,0,139.45-13a71.06,71.06,0,0,0,11.16,38.58A62.88,62.88,0,0,0,179.29,50l.71.29h0l.71-.29a62.88,62.88,0,0,0,28.68-24.36A71.06,71.06,0,0,0,220.55-13a72.11,72.11,0,0,0-7.67-32.49Zm-4.88,70.92A60.59,60.59,0,0,1,180,47.75a60.59,60.59,0,0,1-27.43-23.39A68.74,68.74,0,0,1,141.78-13a69.81,69.81,0,0,1,7.28-31.15c1.5.12,3.05.18,4.74.18a44.83,44.83,0,0,0,13.55-1.85l1.65-.47a33.94,33.94,0,0,1,11-1.7,33.94,33.94,0,0,1,11,1.7l1.65.47a44.83,44.83,0,0,0,13.55,1.85c1.69,0,3.24-.06,4.74-.18A69.81,69.81,0,0,1,218.22-13,68.74,68.74,0,0,1,207.43,24.36Z"/><path class="cls-2" d="M188.82,37.11C180.37,36.73,164.55,34,156,19.42c7.22,13.27,20.59,18.9,27.59,21a39.86,39.86,0,0,0,4.56,1.14c.66-.41,1.28-.8,1.87-1.19q2.23-1.57,4.33-3.36A43.34,43.34,0,0,1,188.82,37.11Z"/><path class="cls-2" d="M210-42.61l-1.13,0c-.91,0-1.84.06-2.84.06a45.74,45.74,0,0,1-13.81-1.88l-1.67-.48A33.1,33.1,0,0,0,180-46.49a33,33,0,0,0-10.57,1.63l-1.67.48A45.74,45.74,0,0,1,154-42.49c-1,0-1.93,0-2.85-.06L150-42.61l-.48,1A68.55,68.55,0,0,0,143.26-13a67.08,67.08,0,0,0,10.53,36.43,59.22,59.22,0,0,0,25.52,22.26L180,46s3.18-1.44,4.39-2.1A22.37,22.37,0,0,1,180,42.31c-.54-.25-1.09-.52-1.6-.78l-.36-.18-.93-.49c-.87-.47-1.72-1-2.56-1.48-.67-.41-1.06-.67-1.06-.67a57.13,57.13,0,0,1-16.86-17.08,63.72,63.72,0,0,1-10-34.59,65.2,65.2,0,0,1,5.46-26.16l1.85,0a48.74,48.74,0,0,0,14.69-2l1.74-.5a29.35,29.35,0,0,1,9.61-1.5,29.35,29.35,0,0,1,9.62,1.5l1.74.5a48.77,48.77,0,0,0,14.7,2l1.84,0A65.24,65.24,0,0,1,213.35-13a63.73,63.73,0,0,1-10,34.59,59.51,59.51,0,0,1-6.87,8.75c-2,.39-7.16,1-7.16,1a55.49,55.49,0,0,1-8.92.11l-1.4-.12q-1.19-.12-2.31-.3l-1.62-.28q-1-.2-1.94-.43l-1.53-.42c-10.4-3.06-14.31-9.24-14.31-9.24s8.85,14.45,34.48,14.1q2.57,0,5.36-.28a61.46,61.46,0,0,0,5-5.44,64.24,64.24,0,0,0,4.08-5.63A67.1,67.1,0,0,0,216.74-13a68.53,68.53,0,0,0-6.23-28.61Z"/><path class="cls-2" d="M156.69-4.38s-.71-.67-.81.11c0,0,.05,5.72,5.43,7.82,0,0-3.13-3.76-3.28-6,0,0,2.27,4.29,5.05,6,0,0,1.19.2,3.49-1.47,0,0-2,2.75-7.38,2.32a.39.39,0,0,0-.54.37c0,.54,2.34,4.63,6.13,4.43,0,0-3.42-2.22-4-4.08a14.89,14.89,0,0,0,5.79,3.6A7.87,7.87,0,0,0,169,5.91s-.1,3.4-5.95,4.53c0,0-.61,0-.4.5,0,0,1,2.16,5.59,2.16,0,0-2.49-1.16-3-2.39,0,0,2.63,2,4.85,1.85a4.2,4.2,0,0,0,1.43-1.82A3.69,3.69,0,0,1,167.83,14s3.5,3.94,10.91,6.57c0,0,6,9.84,8.86,7.48l-6.4-6.2L188.82,28s2.43.44,2.83-.94l-9.77-5.69,9,4.55s5.23.5,4.28-1.11L179.64,20A87.16,87.16,0,0,0,175.31,9a21.06,21.06,0,0,1-1.8-11.72l4.75,6.87s1.41,2.27.81,8c0,0,1.41-5.51-.05-8.74a58.55,58.55,0,0,0-4.75-7.78L179.32,0a17.9,17.9,0,0,1,2.43,8.13s-.2-6.87-1.47-8.29-4.09-4.8-4.09-4.8l4.24,2.37s2.83,2.07,3.28,7.73c0,0,.25-6.32-2.63-8.49s-3.49-2.58-3.49-2.58l4.75,2s3.18,1.77,3.08,6.67c0,0,.61-5.31-2.43-7.53l-3.69-2s1.34-.14,2.25-.34,11.86,7.77,19.2,5.59A4.26,4.26,0,0,0,203.57-6a15.47,15.47,0,0,0-1.11-4.89,18.28,18.28,0,0,0-.15-2c-.56-4.4-2.38-10.35-12.23-13.94,4.9,2,11.21,6.14,11.76,14.73a11.52,11.52,0,0,0-3-3.43c-3.5-2.69-8.66-4-13.34-10.48a25.12,25.12,0,0,0,7.88,7.51c4.57,2.72,7,4.22,8.51,7.67,0,.41,0,.83,0,1.25,0,.07.1,5.49-6.32,5.36a26.33,26.33,0,0,1-11.25-3.4,28.17,28.17,0,0,1,3.47-.2S194.2-6,195.55-5.41l-4.78-2.46a63.45,63.45,0,0,1,7.75,1.35,62.07,62.07,0,0,0-5.63-3.77s4,1.1,4.3,1.24c-.28-.14-4.53-2.19-5.37-2.38a28.43,28.43,0,0,0-9.06-5.89C175.86-20.13,166.46-21,165-12c0,0-.76-2.65,2.55-6.64,0,0,.34-.56-.33-.65,0,0-5.41-.69-6.8,4,0,0,3-2.76,5.51-3.45a25.37,25.37,0,0,0-5.57,5s.19,5.42,6.32,8.42c0,0-6-1.08-7.61-8.25,0,0-.2-.78-.75-.06,0,0-3.6,4.4-.24,8.79,0,0-.28-6.06.76-6.9,0,0-.3,5.36.86,8.26,0,0,2.4,1.95,7.17.28C166.91-3.19,162.23-.28,156.69-4.38ZM201.3-6.16a5.46,5.46,0,0,0,1.11-3.26c1.37,4.5.27,8.07-5,7.44-4.89-.58-6.94-1.8-12.08-4.22C188.63-4.72,198-1.16,201.3-6.16ZM170.1,14.5s3.41,2.3,7.58,4.72C177.67,19.22,172.72,18.11,170.1,14.5Zm5.55-2.73c1.5,3.15,2.9,6.67,2.9,6.67-.14-.21-2.46-4.37-4.13-7a19.2,19.2,0,0,0-2.34-3.16c-.44-4-2.53-5.42-2.53-5.42a9.33,9.33,0,0,0-.67-4.18c.54-.54.94-3.13.94-3.13a10.75,10.75,0,0,0,1.55,0c-.81,5.93.81,8.69,1.48,10.71C173.15,7.17,174.46,9.29,175.64,11.77ZM188.9-10.32a.7.7,0,0,1,.56.56.71.71,0,0,1-.83.83.7.7,0,0,1-.56-.56A.71.71,0,0,1,188.9-10.32Zm-.95-2.3a21.81,21.81,0,0,0-5.17-2.69,65,65,0,0,0-6.5-2.16C184.89-16.36,188-12.62,188-12.62Zm-21-.51a8.21,8.21,0,0,1,5.95-4.82,7.55,7.55,0,0,0-5.12,5.31c-1.31,4.45,3.44,5.25,6.62,4.5A32.12,32.12,0,0,1,180-9.35c3.89-.56,6,.71,6,.71-3.19-1.21-9.47,1.39-12.63,1.77C165.94-6,166.12-11.08,166.91-13.13Z"/><path class="cls-2" d="M2.59,145.42a3.68,3.68,0,0,1-.14,1.22c-.09.24-.39.45-.88.64a8.93,8.93,0,0,1-2,.44c-.84.11-1.82.17-2.93.2s-2,0-2.85,0a8.82,8.82,0,0,1-2-.32c-.51-.16-.82-.35-.91-.58a3.51,3.51,0,0,1-.15-1.22v-1a3.85,3.85,0,0,1,.14-1.23,1.64,1.64,0,0,1,.88-.73,8.13,8.13,0,0,1,2-.59A19.51,19.51,0,0,1-3.36,142a19.76,19.76,0,0,1,2.85.11,7.94,7.94,0,0,1,2,.47,1.59,1.59,0,0,1,.92.67,3.63,3.63,0,0,1,.15,1.24Zm-5.14-1.89q0-.4-.15-.51a1.16,1.16,0,0,0-.63-.09A1.65,1.65,0,0,0-4,143c-.14.07-.21.25-.21.54v2.67c0,.33,0,.54.14.61a1.16,1.16,0,0,0,.65.1,1.12,1.12,0,0,0,.67-.15.94.94,0,0,0,.15-.64Z"/><path class="cls-2" d="M14.83,143.12v1.15c-1.21-.18-1.82-.25-3-.39v4.58c-2-.24-3.07-.33-5.13-.46V143.4c-1.21-.08-1.82-.11-3-.16V142.1A87.73,87.73,0,0,1,14.83,143.12Z"/><path class="cls-2" d="M21.07,144.22v5.72c-2-.42-3-.6-5.08-.92v-5.72C18,143.61,19,143.8,21.07,144.22Z"/><path class="cls-2" d="M32.31,133.44l-1.25.11c-1.52.14-3.11.2-4.86.2A42.32,42.32,0,0,1,13.26,132l-1.6-.46A36.39,36.39,0,0,0,0,129.73a36.39,36.39,0,0,0-11.66,1.79l-1.6.46a42.32,42.32,0,0,1-12.94,1.77c-1.75,0-3.35-.07-4.86-.2l-1.25-.11-.56,1.11A72.11,72.11,0,0,0-40.55,167a71.06,71.06,0,0,0,11.16,38.58A62.88,62.88,0,0,0-.71,230l.71.29H0L.71,230a62.88,62.88,0,0,0,28.68-24.36A71.06,71.06,0,0,0,40.55,167a72.11,72.11,0,0,0-7.67-32.49Zm-4.88,70.92A60.59,60.59,0,0,1,0,227.75a60.59,60.59,0,0,1-27.43-23.39A68.74,68.74,0,0,1-38.22,167a69.81,69.81,0,0,1,7.28-31.15c1.5.12,3.05.18,4.74.18a44.83,44.83,0,0,0,13.55-1.85l1.65-.47a33.94,33.94,0,0,1,11-1.7,33.94,33.94,0,0,1,11,1.7l1.65.47a44.83,44.83,0,0,0,13.55,1.85c1.69,0,3.24-.06,4.74-.18A69.81,69.81,0,0,1,38.22,167,68.74,68.74,0,0,1,27.43,204.36Z"/><path class="cls-2" d="M30,137.39l-1.13,0c-.91,0-1.84.06-2.84.06a45.74,45.74,0,0,1-13.81-1.88l-1.67-.48A33.1,33.1,0,0,0,0,133.51a33,33,0,0,0-10.57,1.63l-1.67.48A45.74,45.74,0,0,1-26,137.51c-1,0-1.93,0-2.85-.06l-1.14-.05-.48,1A68.55,68.55,0,0,0-36.74,167a67.08,67.08,0,0,0,10.53,36.43A59.22,59.22,0,0,0-.69,225.72L0,226s3.18-1.44,4.39-2.1A22.37,22.37,0,0,1,0,222.31c-.54-.25-1.09-.52-1.6-.78l-.36-.18-.93-.49c-.87-.47-1.72-1-2.56-1.48-.67-.41-1.06-.67-1.06-.67a57.13,57.13,0,0,1-16.86-17.08,63.72,63.72,0,0,1-10-34.59,65.2,65.2,0,0,1,5.46-26.16l1.85,0a48.74,48.74,0,0,0,14.69-2l1.74-.5A29.35,29.35,0,0,1,0,136.89a29.35,29.35,0,0,1,9.62,1.5l1.74.5a48.77,48.77,0,0,0,14.7,2l1.84,0A65.24,65.24,0,0,1,33.35,167a63.73,63.73,0,0,1-10,34.59,59.51,59.51,0,0,1-6.87,8.75c-2,.39-7.16,1-7.16,1a55.49,55.49,0,0,1-8.92.11l-1.4-.12q-1.19-.12-2.31-.3l-1.62-.28q-1-.2-1.94-.43l-1.53-.42c-10.4-3.06-14.31-9.24-14.31-9.24s8.85,14.45,34.48,14.1q2.57,0,5.36-.28a61.46,61.46,0,0,0,5-5.44,64.24,64.24,0,0,0,4.08-5.63A67.1,67.1,0,0,0,36.74,167a68.53,68.53,0,0,0-6.23-28.61Z"/><path class="cls-2" d="M10.07,153.12a26.5,26.5,0,0,0-5.8-1.62A42,42,0,0,1,10.07,153.12Z"/><path class="cls-2" d="M-23.31,175.62s-.71-.67-.81.11c0,0,.05,5.72,5.43,7.82,0,0-3.13-3.76-3.28-6,0,0,2.27,4.29,5.05,6,0,0,1.19.2,3.49-1.47,0,0-2,2.75-7.38,2.32a.39.39,0,0,0-.54.37c0,.54,2.34,4.63,6.13,4.43,0,0-3.42-2.22-4-4.08a14.89,14.89,0,0,0,5.79,3.6A7.87,7.87,0,0,0-11,185.91s-.1,3.4-5.95,4.53c0,0-.61,0-.4.5,0,0,1,2.16,5.59,2.16,0,0-2.49-1.16-3-2.39,0,0,2.63,2,4.85,1.85a4.2,4.2,0,0,0,1.43-1.82A3.69,3.69,0,0,1-12.17,194s3.5,3.94,10.91,6.57c0,0,6,9.84,8.86,7.48l-6.4-6.2L8.82,208s2.43.44,2.83-.94L1.88,201.4l9,4.55s5.23.5,4.28-1.11L-.36,200A87.16,87.16,0,0,0-4.69,189a21.06,21.06,0,0,1-1.8-11.72l4.75,6.87s1.41,2.27.81,8c0,0,1.41-5.51-.05-8.74a58.55,58.55,0,0,0-4.75-7.78L-.68,180a17.9,17.9,0,0,1,2.43,8.13s-.2-6.87-1.47-8.29-4.09-4.8-4.09-4.8l4.24,2.37s2.83,2.07,3.28,7.73c0,0,.25-6.32-2.63-8.49s-3.49-2.58-3.49-2.58l4.75,2s3.18,1.77,3.08,6.67c0,0,.61-5.31-2.43-7.53l-3.69-2s1.34-.14,2.25-.34,11.86,7.77,19.2,5.59a4.26,4.26,0,0,0,2.8-4.49,15.47,15.47,0,0,0-1.11-4.89,18.28,18.28,0,0,0-.15-2c-.56-4.4-2.38-10.35-12.23-13.94,4.9,2,11.21,6.14,11.76,14.73a11.52,11.52,0,0,0-3-3.43c-3.5-2.69-8.66-4-13.34-10.48a25.12,25.12,0,0,0,7.88,7.51c4.57,2.72,7,4.22,8.51,7.67,0,.41,0,.83,0,1.25,0,.07.1,5.49-6.32,5.36a26.33,26.33,0,0,1-11.25-3.4,28.17,28.17,0,0,1,3.47-.2s6.46,1.86,7.82,2.46l-4.78-2.46a63.45,63.45,0,0,1,7.75,1.35,62.07,62.07,0,0,0-5.63-3.77s4,1.1,4.3,1.24c-.28-.14-4.53-2.19-5.37-2.38a28.43,28.43,0,0,0-9.06-5.89C-4.14,159.87-13.54,159-15,168c0,0-.76-2.65,2.55-6.64,0,0,.34-.56-.33-.65,0,0-5.41-.69-6.8,4,0,0,3-2.76,5.51-3.45a25.37,25.37,0,0,0-5.57,5s.19,5.42,6.32,8.42c0,0-6-1.08-7.61-8.25,0,0-.2-.78-.75-.06,0,0-3.6,4.4-.24,8.79,0,0-.28-6.06.76-6.9,0,0-.3,5.36.86,8.26,0,0,2.4,1.95,7.17.28C-13.09,176.81-17.77,179.72-23.31,175.62Zm44.61-1.78a5.46,5.46,0,0,0,1.11-3.26c1.37,4.5.27,8.07-5,7.44-4.89-.58-6.94-1.8-12.08-4.22C8.63,175.28,18,178.84,21.3,173.84ZM-9.9,194.5s3.41,2.3,7.58,4.72C-2.33,199.22-7.28,198.11-9.9,194.5Zm5.55-2.73c1.5,3.15,2.9,6.67,2.9,6.67-.14-.21-2.46-4.37-4.13-7a19.2,19.2,0,0,0-2.34-3.16c-.44-4-2.53-5.42-2.53-5.42a9.33,9.33,0,0,0-.67-4.18c.54-.54.94-3.13.94-3.13a10.75,10.75,0,0,0,1.55,0c-.81,5.93.81,8.69,1.48,10.71C-6.85,187.17-5.54,189.29-4.36,191.77ZM8.9,169.68a.71.71,0,1,1-.83.83A.7.7,0,0,1,8.9,169.68ZM8,167.38a21.81,21.81,0,0,0-5.17-2.69,65,65,0,0,0-6.5-2.16C4.89,163.64,8,167.38,8,167.38Zm-21-.51a8.21,8.21,0,0,1,5.95-4.82,7.55,7.55,0,0,0-5.12,5.31c-1.31,4.45,3.44,5.25,6.62,4.5A32.12,32.12,0,0,1,0,170.65c3.89-.56,6,.71,6,.71-3.19-1.21-9.47,1.39-12.63,1.77C-14.06,174-13.88,168.92-13.09,166.87Z"/><path class="cls-2" d="M32.31-46.56l-1.25.11c-1.52.14-3.11.2-4.86.2A42.32,42.32,0,0,1,13.26-48l-1.6-.46A36.39,36.39,0,0,0,0-50.27a36.39,36.39,0,0,0-11.66,1.79l-1.6.46A42.32,42.32,0,0,1-26.2-46.25c-1.75,0-3.35-.07-4.86-.2l-1.25-.11-.56,1.11A72.11,72.11,0,0,0-40.55-13,71.06,71.06,0,0,0-29.38,25.62,62.88,62.88,0,0,0-.71,50l.71.29H0L.71,50A62.88,62.88,0,0,0,29.38,25.62,71.06,71.06,0,0,0,40.55-13a72.11,72.11,0,0,0-7.67-32.49ZM27.43,24.36A60.59,60.59,0,0,1,0,47.75,60.59,60.59,0,0,1-27.43,24.36,68.74,68.74,0,0,1-38.22-13,69.81,69.81,0,0,1-30.94-44.1c1.5.12,3.05.18,4.74.18a44.83,44.83,0,0,0,13.55-1.85l1.65-.47a33.94,33.94,0,0,1,11-1.7,33.94,33.94,0,0,1,11,1.7l1.65.47A44.83,44.83,0,0,0,26.2-43.92c1.69,0,3.24-.06,4.74-.18A69.81,69.81,0,0,1,38.22-13,68.74,68.74,0,0,1,27.43,24.36Z"/><path class="cls-2" d="M8.82,37.11C.37,36.73-15.45,34-24,19.42c7.22,13.27,20.59,18.9,27.59,21a39.86,39.86,0,0,0,4.56,1.14c.66-.41,1.28-.8,1.87-1.19q2.23-1.57,4.33-3.36A43.34,43.34,0,0,1,8.82,37.11Z"/><path class="cls-2" d="M30-42.61l-1.13,0c-.91,0-1.84.06-2.84.06a45.74,45.74,0,0,1-13.81-1.88l-1.67-.48A33.1,33.1,0,0,0,0-46.49a33,33,0,0,0-10.57,1.63l-1.67.48A45.74,45.74,0,0,1-26-42.49c-1,0-1.93,0-2.85-.06L-30-42.61l-.48,1A68.55,68.55,0,0,0-36.74-13,67.08,67.08,0,0,0-26.21,23.46,59.22,59.22,0,0,0-.69,45.72L0,46s3.18-1.44,4.39-2.1A22.37,22.37,0,0,1,0,42.31c-.54-.25-1.09-.52-1.6-.78L-2,41.35l-.93-.49c-.87-.47-1.72-1-2.56-1.48-.67-.41-1.06-.67-1.06-.67A57.13,57.13,0,0,1-23.36,21.62,63.72,63.72,0,0,1-33.35-13,65.2,65.2,0,0,1-27.9-39.13l1.85,0a48.74,48.74,0,0,0,14.69-2l1.74-.5A29.35,29.35,0,0,1,0-43.11a29.35,29.35,0,0,1,9.62,1.5l1.74.5a48.77,48.77,0,0,0,14.7,2l1.84,0A65.24,65.24,0,0,1,33.35-13a63.73,63.73,0,0,1-10,34.59,59.51,59.51,0,0,1-6.87,8.75c-2,.39-7.16,1-7.16,1a55.49,55.49,0,0,1-8.92.11L-1,31.37q-1.19-.12-2.31-.3l-1.62-.28q-1-.2-1.94-.43l-1.53-.42C-18.79,26.87-22.7,20.7-22.7,20.7s8.85,14.45,34.48,14.1q2.57,0,5.36-.28a61.46,61.46,0,0,0,5-5.44,64.24,64.24,0,0,0,4.08-5.63A67.1,67.1,0,0,0,36.74-13a68.53,68.53,0,0,0-6.23-28.61Z"/><path class="cls-2" d="M-23.31-4.38s-.71-.67-.81.11c0,0,.05,5.72,5.43,7.82,0,0-3.13-3.76-3.28-6,0,0,2.27,4.29,5.05,6,0,0,1.19.2,3.49-1.47,0,0-2,2.75-7.38,2.32a.39.39,0,0,0-.54.37c0,.54,2.34,4.63,6.13,4.43,0,0-3.42-2.22-4-4.08a14.89,14.89,0,0,0,5.79,3.6A7.87,7.87,0,0,0-11,5.91s-.1,3.4-5.95,4.53c0,0-.61,0-.4.5,0,0,1,2.16,5.59,2.16,0,0-2.49-1.16-3-2.39,0,0,2.63,2,4.85,1.85a4.2,4.2,0,0,0,1.43-1.82A3.69,3.69,0,0,1-12.17,14S-8.67,18-1.26,20.59c0,0,6,9.84,8.86,7.48l-6.4-6.2L8.82,28s2.43.44,2.83-.94L1.88,21.4l9,4.55s5.23.5,4.28-1.11L-.36,20A87.16,87.16,0,0,0-4.69,9,21.06,21.06,0,0,1-6.49-2.68l4.75,6.87s1.41,2.27.81,8c0,0,1.41-5.51-.05-8.74A58.55,58.55,0,0,0-5.74-4.3L-.68,0A17.9,17.9,0,0,1,1.74,8.18S1.54,1.31.28-.11s-4.09-4.8-4.09-4.8L.43-2.53S3.26-.46,3.71,5.2c0,0,.25-6.32-2.63-8.49S-2.4-5.87-2.4-5.87l4.75,2S5.53-2.13,5.43,2.77c0,0,.61-5.31-2.43-7.53l-3.69-2s1.34-.14,2.25-.34S13.43.65,20.77-1.53A4.26,4.26,0,0,0,23.57-6a15.47,15.47,0,0,0-1.11-4.89,18.28,18.28,0,0,0-.15-2c-.56-4.4-2.38-10.35-12.23-13.94,4.9,2,11.21,6.14,11.76,14.73a11.52,11.52,0,0,0-3-3.43c-3.5-2.69-8.66-4-13.34-10.48a25.12,25.12,0,0,0,7.88,7.51c4.57,2.72,7,4.22,8.51,7.67,0,.41,0,.83,0,1.25,0,.07.1,5.49-6.32,5.36A26.33,26.33,0,0,1,4.27-7.67a28.17,28.17,0,0,1,3.47-.2S14.2-6,15.55-5.41L10.77-7.87a63.45,63.45,0,0,1,7.75,1.35,62.07,62.07,0,0,0-5.63-3.77s4,1.1,4.3,1.24c-.28-.14-4.53-2.19-5.37-2.38a28.43,28.43,0,0,0-9.06-5.89C-4.14-20.13-13.54-21-15-12c0,0-.76-2.65,2.55-6.64,0,0,.34-.56-.33-.65,0,0-5.41-.69-6.8,4,0,0,3-2.76,5.51-3.45a25.37,25.37,0,0,0-5.57,5s.19,5.42,6.32,8.42c0,0-6-1.08-7.61-8.25,0,0-.2-.78-.75-.06,0,0-3.6,4.4-.24,8.79,0,0-.28-6.06.76-6.9,0,0-.3,5.36.86,8.26,0,0,2.4,1.95,7.17.28C-13.09-3.19-17.77-.28-23.31-4.38ZM21.3-6.16A5.46,5.46,0,0,0,22.4-9.42c1.37,4.5.27,8.07-5,7.44-4.89-.58-6.94-1.8-12.08-4.22C8.63-4.72,18-1.16,21.3-6.16ZM-9.9,14.5s3.41,2.3,7.58,4.72C-2.33,19.22-7.28,18.11-9.9,14.5Zm5.55-2.73c1.5,3.15,2.9,6.67,2.9,6.67-.14-.21-2.46-4.37-4.13-7A19.2,19.2,0,0,0-7.93,8.3c-.44-4-2.53-5.42-2.53-5.42a9.33,9.33,0,0,0-.67-4.18c.54-.54.94-3.13.94-3.13a10.75,10.75,0,0,0,1.55,0c-.81,5.93.81,8.69,1.48,10.71C-6.85,7.17-5.54,9.29-4.36,11.77ZM8.9-10.32a.7.7,0,0,1,.56.56.71.71,0,0,1-.83.83.7.7,0,0,1-.56-.56A.71.71,0,0,1,8.9-10.32ZM8-12.62a21.81,21.81,0,0,0-5.17-2.69,65,65,0,0,0-6.5-2.16C4.89-16.36,8-12.62,8-12.62Zm-21-.51a8.21,8.21,0,0,1,5.95-4.82,7.55,7.55,0,0,0-5.12,5.31c-1.31,4.45,3.44,5.25,6.62,4.5A32.12,32.12,0,0,1,0-9.35c3.89-.56,6,.71,6,.71C2.85-9.85-3.43-7.26-6.6-6.88-14.06-6-13.88-11.08-13.09-13.13Z"/></svg>