<svg xmlns="http://www.w3.org/2000/svg" viewBox="0 0 100 100"><defs><style>.cls-1{fill:#81132c;}.cls-2{fill:#fff;}.cls-3{fill:#b5bdc7;}.cls-4{fill:#0062a3;}.cls-5{fill:#005796;}</style></defs><title>ESCUDO_POTI</title><g id="Camada_1" data-name="Camada 1"><path class="cls-1" d="M78.78,68.91v6.62l4.85,2.92s-1.82,3.41-9.09,4l-1.41-5.79L66.46,72.8S75.15,72.22,78.78,68.91Z"/><path class="cls-1" d="M21.22,68.91v6.62l-4.85,2.92s1.82,3.41,9.09,4l1.41-5.79,6.66-3.89S24.86,72.22,21.22,68.91Z"/><path class="cls-1" d="M35.66,72.7v5s-5-.19-6.26-1.17Z"/><path class="cls-1" d="M64.54,72.7v5s5-.19,6.26-1.17Z"/><path class="cls-1" d="M28.29,77.67a87.54,87.54,0,0,0,43.49,0l3.27,10s-22.52,7.46-50.09,0Z"/><path class="cls-2" d="M31.75,81.4l1.32.26a14.35,14.35,0,0,1,1.72.4,1.62,1.62,0,0,1,.65.38.8.8,0,0,1,.23.46,4.3,4.3,0,0,1-.08.9l-.26,1.64a2.54,2.54,0,0,1-.22.83.67.67,0,0,1-.37.28,1.7,1.7,0,0,1-.59.07,7.21,7.21,0,0,1-1-.13c-.94-.17-1.41-.26-2.35-.46Zm1.62,1.14L32.8,85.6c.27,0,.44,0,.51,0A1.07,1.07,0,0,0,33.5,85l.33-1.81a1.69,1.69,0,0,0,0-.41.22.22,0,0,0-.11-.16A1.3,1.3,0,0,0,33.37,82.54Z"/><path class="cls-2" d="M40.47,84.83l-1.83-.21.1-.82a1,1,0,0,0,0-.45c0-.06-.11-.1-.24-.12s-.25,0-.3.07a1.14,1.14,0,0,0-.12.46l-.29,2.18a1,1,0,0,0,0,.45c0,.07.12.12.27.14a.3.3,0,0,0,.29-.07,1.15,1.15,0,0,0,.13-.48l.07-.59,1.84.21,0,.18a2.45,2.45,0,0,1-.27,1,1.32,1.32,0,0,1-.76.46,3.33,3.33,0,0,1-1.36.07A3.91,3.91,0,0,1,36.65,87a1.2,1.2,0,0,1-.63-.64,2.39,2.39,0,0,1,0-1.06l.21-1.37a4.16,4.16,0,0,1,.17-.75.94.94,0,0,1,.38-.44,1.81,1.81,0,0,1,.75-.27,3.73,3.73,0,0,1,1,0,3.65,3.65,0,0,1,1.28.37,1.27,1.27,0,0,1,.62.59,2.21,2.21,0,0,1,.06,1Z"/><path class="cls-2" d="M44.41,83.09c.29,1.91.45,2.87.79,4.78l-1.93-.12,0-.86-.67-.05-.18.84-1.95-.18c.57-1.84.85-2.77,1.39-4.62C42.86,83,43.38,83,44.41,83.09Zm-1.17,3q-.08-.81-.13-2c-.25.89-.42,1.54-.51,2Z"/><path class="cls-2" d="M49.32,85.65v.81c-.94,0-1.41,0-2.34,0l0-.81C47.93,85.63,48.39,85.64,49.32,85.65Z"/><path class="cls-2" d="M55.47,83.1l.19,3.15a3.63,3.63,0,0,1,0,.76.91.91,0,0,1-.29.46,1.72,1.72,0,0,1-.68.38,3.74,3.74,0,0,1-1,.16,4.06,4.06,0,0,1-1.15-.1,1.79,1.79,0,0,1-.75-.35.85.85,0,0,1-.3-.47,7.6,7.6,0,0,1-.06-1l0-2.8,1.79,0,.12,3.54a.94.94,0,0,0,.07.39.22.22,0,0,0,.21.08c.12,0,.19,0,.23-.1a1.19,1.19,0,0,0,0-.45l-.14-3.48Z"/><path class="cls-2" d="M56.16,83.05c1.21-.08,1.82-.14,3-.26l.1.94L58,83.86l.08.89,1.13-.11.09.89-1.14.11.18,2-1.88.15Z"/><path class="cls-2" d="M59.62,82.75l1.26-.14a17.16,17.16,0,0,1,1.72-.16,1.32,1.32,0,0,1,.78.23,1.19,1.19,0,0,1,.42.83,1,1,0,0,1-.09.76,1.35,1.35,0,0,1-.77.34,1.75,1.75,0,0,1,.76.13A.72.72,0,0,1,64,85a3,3,0,0,1,.15.68l.19,1.23-1.74.25-.21-1.56a.76.76,0,0,0-.15-.45.77.77,0,0,0-.48,0L62,87.23l-1.88.22Zm1.89.59.13,1a1.13,1.13,0,0,0,.42-.11q.12-.07.07-.38l0-.26q0-.22-.16-.28A1,1,0,0,0,61.51,83.34Z"/><path class="cls-2" d="M68.25,81.4l1,4.63-1.63.32c-.55-.77-.82-1.16-1.35-1.94l.38,2.12L65,86.79l-.75-4.67,1.48-.25c.55.77.83,1.15,1.39,1.91l-.4-2.09Z"/><path class="cls-2" d="M73.13,12.68l-.39-.77-.19-.37-.41,0-.86.08c-1,.09-2.11.14-3.29.14a28.54,28.54,0,0,1-8.73-1.19l-1.09-.31A25.53,25.53,0,0,0,50,9a25.53,25.53,0,0,0-8.19,1.26l-1.09.31A28.55,28.55,0,0,1,32,11.79c-1.18,0-2.25,0-3.29-.14l-.86-.08-.41,0-.19.37-.39.77a50.16,50.16,0,0,0-5.34,22.6,49.44,49.44,0,0,0,7.77,26.84,43.82,43.82,0,0,0,20,17l.49.2.23.1.23-.1.48-.2a43.82,43.82,0,0,0,20-17,49.44,49.44,0,0,0,7.77-26.84A50.16,50.16,0,0,0,73.13,12.68Z"/><path class="cls-3" d="M50,78.73l.48-.2A43.2,43.2,0,0,0,70.19,61.79a48.83,48.83,0,0,0,7.67-26.51A49.55,49.55,0,0,0,72.59,13l-.39-.77-.86.08c-1,.09-2.13.14-3.34.14a29.08,29.08,0,0,1-8.89-1.22L58,10.88a25,25,0,0,0-8-1.23,25,25,0,0,0-8,1.23l-1.1.32A29.08,29.08,0,0,1,32,12.41c-1.21,0-2.3,0-3.34-.14l-.86-.08-.39.77a49.55,49.55,0,0,0-5.27,22.32,48.83,48.83,0,0,0,7.67,26.51A43.2,43.2,0,0,0,49.52,78.53l.48.2h0"/><path class="cls-4" d="M42.44,12.41l-1.14.33A30.8,30.8,0,0,1,32,14c-1.16,0-2.23,0-3.26-.13a48,48,0,0,0-5,21.4,47.23,47.23,0,0,0,7.41,25.64A41.63,41.63,0,0,0,50,77V11.24A23.32,23.32,0,0,0,42.44,12.41Z"/><path class="cls-5" d="M57.56,12.41l1.14.33A30.8,30.8,0,0,0,68,14c1.16,0,2.23,0,3.26-.13a48,48,0,0,1,5,21.4,47.23,47.23,0,0,1-7.41,25.64A41.63,41.63,0,0,1,50,77V11.24A23.32,23.32,0,0,1,57.56,12.41Z"/><g id="contorno_branco" data-name="contorno branco"><path class="cls-2" d="M33.53,57.53c5.85,10,16.72,11.89,22.53,12.16a29.77,29.77,0,0,0,3.82,0q-1.44,1.23-3,2.31l-1.29.82A27.39,27.39,0,0,1,52.49,72C47.68,70.52,38.49,66.64,33.53,57.53Z"/><path class="cls-2" d="M29,15.62l.33-.71.78,0c.63,0,1.27,0,2,0a31.43,31.43,0,0,0,9.48-1.29l1.15-.33a24.07,24.07,0,0,1,14.53,0l1.15.33A31.43,31.43,0,0,0,67.9,15c.69,0,1.33,0,2,0l.78,0,.33.71a47.08,47.08,0,0,1,4.28,19.65A46.1,46.1,0,0,1,68,60.3a44.13,44.13,0,0,1-2.8,3.87,42.23,42.23,0,0,1-3.43,3.74q-1.92.17-3.68.19c-17.61.24-23.69-9.69-23.69-9.69s2.69,4.24,9.83,6.35l1.05.29q.65.16,1.33.3l1.12.19q.77.12,1.59.21l1,.08a38.12,38.12,0,0,0,6.13-.07s3.52-.43,4.92-.7a40.89,40.89,0,0,0,4.72-6,43.79,43.79,0,0,0,6.86-23.77,44.83,44.83,0,0,0-3.75-18l-1.27,0a33.51,33.51,0,0,1-10.1-1.37l-1.19-.34a21.72,21.72,0,0,0-13.21,0l-1.2.34a33.49,33.49,0,0,1-10.1,1.37l-1.27,0a44.8,44.8,0,0,0-3.75,18A43.78,43.78,0,0,0,33.95,59,39.25,39.25,0,0,0,45.53,70.78l.73.46c.58.36,1.16.69,1.76,1l.64.34.24.13,1.1.53a15.37,15.37,0,0,0,3,1.09c-.83.45-3,1.44-3,1.44l-.48-.19A40.69,40.69,0,0,1,32,60.3a46.09,46.09,0,0,1-7.23-25A47.1,47.1,0,0,1,29,15.62Z"/></g><path class="cls-2" d="M60.69,40.47l.14.07Z"/><path class="cls-2" d="M56.92,25.72a18.21,18.21,0,0,0-4-1.11A28.85,28.85,0,0,1,56.92,25.72Z"/><path class="cls-2" d="M61.81,38h0Z"/><path class="cls-2" d="M66.19,40.05a10.63,10.63,0,0,0-.76-3.36,12.56,12.56,0,0,0-.1-1.4c-.39-3-1.63-7.11-8.41-9.58,3.37,1.35,7.7,4.22,8.08,10.12a7.91,7.91,0,0,0-2.07-2.35c-2.41-1.85-5.95-2.75-9.17-7.2a17.26,17.26,0,0,0,5.42,5.16c3.14,1.87,4.84,2.9,5.85,5.27,0,.28,0,.57,0,.86,0,0,.07,3.77-4.34,3.68a18.09,18.09,0,0,1-7.73-2.34,19.36,19.36,0,0,1,2.38-.14s4.44,1.28,5.37,1.69L57.4,38.78a43.59,43.59,0,0,1,5.32.93,42.65,42.65,0,0,0-3.87-2.59s2.73.76,3,.85c-.2-.09-3.11-1.5-3.69-1.64a19.53,19.53,0,0,0-6.23-4.05c-4.74-1.92-11.19-2.51-12.17,3.66,0,0-.52-1.82,1.75-4.57,0,0,.23-.39-.23-.45,0,0-3.71-.47-4.67,2.74a11.83,11.83,0,0,1,3.78-2.37,17.43,17.43,0,0,0-3.83,3.46,7.21,7.21,0,0,0,4.34,5.79,7.13,7.13,0,0,1-5.23-5.67s-.14-.54-.51,0c0,0-2.47,3-.16,6,0,0-.19-4.17.52-4.74,0,0-.21,3.68.59,5.68,0,0,1.65,1.34,4.93.19,0,0-3.22,2-7-.82,0,0-.49-.46-.56.08a6.07,6.07,0,0,0,3.73,5.37S35,44,34.9,42.48a12.94,12.94,0,0,0,3.47,4.15s.82.14,2.4-1c0,0-1.35,1.89-5.07,1.6a.27.27,0,0,0-.37.25c0,.37,1.61,3.18,4.21,3,0,0-2.35-1.53-2.77-2.8a10.23,10.23,0,0,0,4,2.48,5.41,5.41,0,0,0,1.68-1.94s-.07,2.34-4.08,3.11c0,0-.42,0-.27.34,0,0,.71,1.49,3.84,1.49,0,0-1.71-.8-2-1.64a6.49,6.49,0,0,0,3.33,1.27,2.89,2.89,0,0,0,1-1.25,2.53,2.53,0,0,1-2.53,2.26,19.1,19.1,0,0,0,7.5,4.51s4.1,6.76,6.09,5.14l-4.4-4.26,5.23,4.24s1.67.3,1.94-.65l-6.71-3.91L57.45,62s3.59.34,2.94-.76L49.76,57.9a59.89,59.89,0,0,0-3-7.5,14.47,14.47,0,0,1-1.24-8.05l3.26,4.72s1,1.56.56,5.52c0,0,1-3.78,0-6a40.23,40.23,0,0,0-3.26-5.35l3.47,3a12.3,12.3,0,0,1,1.67,5.59s-.14-4.72-1-5.69-2.81-3.3-2.81-3.3l2.92,1.63s1.94,1.42,2.26,5.31c0,0,.17-4.34-1.81-5.83s-2.4-1.77-2.4-1.77l3.26,1.35a5,5,0,0,1,2.12,4.58s.42-3.65-1.67-5.17l-2.53-1.39s.92-.1,1.55-.24,8.15,5.34,13.19,3.84A2.92,2.92,0,0,0,66.19,40.05Zm-10.08-3a.49.49,0,1,1-.57.57A.48.48,0,0,1,56.12,37.1Zm-.65-1.58a15,15,0,0,0-3.55-1.85,44.68,44.68,0,0,0-4.47-1.48C53.36,32.95,55.47,35.51,55.47,35.51ZM43.19,54.15s2.34,1.58,5.21,3.25A9.86,9.86,0,0,1,43.19,54.15ZM47,52.27c1,2.17,2,4.58,2,4.58s-1.69-3-2.84-4.8a13.19,13.19,0,0,0-1.61-2.17c-.3-2.78-1.74-3.73-1.74-3.73a6.41,6.41,0,0,0-.46-2.87A6.68,6.68,0,0,0,43,41.14a7.39,7.39,0,0,0,1.06,0,12.79,12.79,0,0,0,1,7.36C45.29,49.11,46.2,50.57,47,52.27ZM45.47,39.46c-5.13.61-5-2.89-4.46-4.3a5.64,5.64,0,0,1,4.09-3.31,5.18,5.18,0,0,0-3.52,3.65c-.9,3.06,2.36,3.61,4.55,3.09A22.07,22.07,0,0,1,50,37.76a6.69,6.69,0,0,1,4.13.49C52,37.42,47.64,39.2,45.47,39.46Zm16.47,3.37c-3.36-.4-4.77-1.24-8.3-2.9,2.29,1,8.75,3.47,11,0a3.75,3.75,0,0,0,.76-2.24C66.33,40.8,65.58,43.26,61.94,42.83Z"/><path class="cls-2" d="M35.15,19.6c1.4-.29,2.1-.42,3.52-.64a20.12,20.12,0,0,1,2.2-.24,5.06,5.06,0,0,1,1.16.05.94.94,0,0,1,.53.24.82.82,0,0,1,.14.53v.34a.67.67,0,0,1-.27.58,3,3,0,0,1-1,.37c-.48.12-1.1.22-1.86.33l-.94.14V22.9c-1.4.22-2.1.35-3.49.63Zm3.49,0v1l.26,0a2.47,2.47,0,0,0,.67-.17.33.33,0,0,0,.19-.31v-.32a.22.22,0,0,0-.22-.23A3.9,3.9,0,0,0,38.64,19.64Z"/><path class="cls-2" d="M51.78,20.42a2.53,2.53,0,0,1-.1.84c-.06.16-.27.31-.6.44a6.15,6.15,0,0,1-1.37.3c-.58.07-1.25.12-2,.14s-1.38,0-2,0a6.06,6.06,0,0,1-1.4-.22c-.35-.11-.56-.24-.63-.4a2.4,2.4,0,0,1-.1-.84V20a2.64,2.64,0,0,1,.1-.85,1.12,1.12,0,0,1,.6-.5,5.56,5.56,0,0,1,1.37-.41,13.41,13.41,0,0,1,2-.2,13.58,13.58,0,0,1,2,.07,5.45,5.45,0,0,1,1.4.32,1.09,1.09,0,0,1,.63.46,2.5,2.5,0,0,1,.1.85Zm-3.53-1.3q0-.27-.11-.35a.79.79,0,0,0-.43-.07,1.13,1.13,0,0,0-.42.08c-.1,0-.15.17-.15.37V21c0,.23,0,.37.1.42a.8.8,0,0,0,.45.07.78.78,0,0,0,.46-.1.65.65,0,0,0,.1-.44C48.24,20.21,48.24,19.85,48.24,19.12Z"/><path class="cls-2" d="M60.19,18.84v.79c-.83-.12-1.25-.18-2.09-.27V22.5c-1.41-.16-2.11-.23-3.52-.32V19c-.83-.06-1.25-.08-2.09-.11v-.79A60.28,60.28,0,0,1,60.19,18.84Z"/><path class="cls-2" d="M64.48,19.6v3.93c-1.39-.29-2.09-.41-3.49-.63V19C62.39,19.18,63.09,19.31,64.48,19.6Z"/></g></svg>